# AST/ASF file generated using VICON BodyLanguage
# -----------------------------------------------
:version 1.10
:name VICON
:units
  mass 1.0
  length 0.1
  angle deg
:documentation
   .ast/.asf automatically generated from VICON data using
   VICON BodyBuilder and BodyLanguage model FULLBODY5.MOD
:root
   order TX TY TZ RZ RY RX
   axis XYZ
   position 0 0 0  
   orientation 0 -0 0 
:bonedata
  begin
     id 1 
     name lhipjoint
     direction 0.961525 -0.229516 0.150972 
     length 0.502153 
     axis 0 -0 0  XYZ
  end
  begin
     id 2 
     name lfemur
     direction 0.173648 -0.984808 0  
     length 1.83052  
     axis 0 -0 10  XYZ
    dof rx ry rz
    limits (-180.0 180.0)
           (-180.0 180.0)
           (-180.0 180.0)
  end
  begin
     id 3 
     name ltibia
     direction 0.173629 -0.984811 0   
     length 1.50296   
     axis 0 -0 10   XYZ
    dof rx ry rz
    limits (-180.0 180.0)
           (-180.0 180.0)
           (-180.0 180.0)
  end
  begin
     id 4 
     name lfoot
     direction 7.59329e-012 -0.227408 0.9738   
     length 0.574743   
     axis -90 -1.73656e-015 10   XYZ
    dof rx ry rz
    limits (-180.0 180.0)
           (-180.0 180.0)
           (-180.0 180.0)
  end
  begin
     id 5 
     name ltoes
     direction 7.79885e-012 -4.41741e-011 1   
     length 0.28489   
     axis -90 -1.73656e-015 10   XYZ
    dof rx ry rz
    limits (-180.0 180.0)
           (-180.0 180.0)
           (-180.0 180.0)
  end
  begin
     id 6 
     name rhipjoint
     direction -0.970498 -0.201437 0.132502   
     length 0.572149  
     axis 0 -0 0  XYZ 
  end
  begin
     id 7 
     name rfemur
     direction -0.173648 -0.984808 0   
     length 1.71866   
     axis 0 -0 -10   XYZ
    dof rx ry rz
    limits (-180.0 180.0)
           (-180.0 180.0)
           (-180.0 180.0)
  end
  begin
     id 8 
     name rtibia
     direction -0.173624 -0.984812 0   
     length 1.42623   
     axis 0 -0 -10   XYZ
    dof rx ry rz
    limits (-180.0 180.0)
           (-180.0 180.0)
           (-180.0 180.0)
 end
 begin
     id 9 
     name rfoot
     direction -7.12931e-012 -0.404275 0.914637   
     length 0.524692  
     axis -90 1.73656e-015 -10   XYZ
    dof rx ry rz
    limits (-180.0 180.0)
           (-180.0 180.0)
           (-180.0 180.0)
  end
  begin
     id 10 
     name rtoes
     direction -7.79289e-012 -4.41454e-011 1   
     length 0.254983   
     axis -90 1.73656e-015 -10   XYZ
    dof rx ry rz
    limits (-180.0 180.0)
           (-180.0 180.0)
           (-180.0 180.0)
  end
  begin
     id 11 
     name lowerback
     direction -0.0214086 0.993738 0.109665   
     length 0.417614   
     axis 0 -0 0   XYZ
    dof rx ry rz
    limits (-180.0 180.0)
           (-180.0 180.0)
           (-180.0 180.0)
  end
  begin
     id 12 
     name upperback
     direction 8.15962e-005 0.99996 0.00893412   
     length 0.419234   
     axis 0 -0 0   XYZ
    dof rx ry rz
    limits (-180.0 180.0)
           (-180.0 180.0)
           (-180.0 180.0)
  end
  begin
     id 13 
     name thorax
     direction 0.00826031 0.999067 -0.0423848   
     length 0.424697   
     axis 0 -0 0   XYZ
    dof rx ry rz
    limits (-180.0 180.0)
           (-180.0 180.0)
           (-180.0 180.0)
  end
  begin
     id 14 
     name lowerneck
     direction -0.0196262 0.994272 -0.105058   
     length 0.355877   
     axis 0 -0 0   XYZ
    dof rx ry rz
    limits (-180.0 180.0)
           (-180.0 180.0)
           (-180.0 180.0)
  end
  begin
     id 15 
     name upperneck
     direction 0.000117372 0.999091 0.0426261   
     length 0.351054   
     axis 0 -0 0   XYZ
    dof rx ry rz
    limits (-180.0 180.0)
           (-180.0 180.0)
           (-180.0 180.0)
  end
  begin
     id 16
     name head
     direction 0.00157618 0.999651 0.0263619  
     length 0.374844  
     axis 0 -0 0   XYZ
    dof rx ry rz
    limits (-180.0 180.0)
           (-180.0 180.0)
           (-180.0 180.0)
  end
  begin
     id 17 
     name lshoulderjoint
     direction 0.981627 -0.190809 0  
     length 0.701763  
     axis 0 -0 -11   XYZ
    dof rx ry rz
    limits (-180.0 180.0)
           (-180.0 180.0)
           (-180.0 180.0)
  end
  begin
     id 18 
     name lhumerus
     direction 0.48481 -0.87462 -1.80676e-026   
     length 0.994704   
     axis -180 5.14477e-009 -151   XYZ
    dof rx ry rz
    limits (-180.0 180.0)
           (-180.0 180.0)
           (-180.0 180.0)
  end
  begin
     id 19
     name lradius
     direction 0.48481 -0.87462 -3.2569e-026   
     length 0.617638   
     axis -180 5.14477e-009 -151   XYZ
    dof rx ry rz
    limits (-180.0 180.0)
           (-180.0 180.0)
           (-180.0 180.0)
  end
  begin
     id 20
     name lwrist
     direction 0.48481 -0.87462 -6.73202e-026   
     length 0.308819   
     axis -180 5.14477e-009 -151   XYZ
    dof rx ry rz
    limits (-180.0 180.0)
           (-180.0 180.0)
           (-180.0 180.0)
  end
  begin
     id 21 
     name lhand
     direction 0.478366 -0.863761 -0.158376   
     length 0.291656   
     axis -180 5.14477e-009 -151   XYZ
    dof rx ry rz
    limits (-180.0 180.0)
           (-180.0 180.0)
           (-180.0 180.0)
  end
  begin
     id 22 
     name rshoulderjoint
     direction -0.981627 -0.190809 0   
     length 0.66654  
     axis 0 -0 11   XYZ 
    dof rx ry rz
    limits (-180.0 180.0)
           (-180.0 180.0)
           (-180.0 180.0)
  end
  begin
     id 23 
     name rhumerus
     direction -0.48481 -0.87462 1.77576e-026  
     length 1.15089   
     axis 180 5.14477e-009 151   XYZ
    dof rx ry rz
    limits (-180.0 180.0)
           (-180.0 180.0)
           (-180.0 180.0)
  end
  begin
     id 24 
     name rradius
     direction -0.48481 -0.87462 3.79421e-026   
     length 0.613887   
     axis 180 5.14477e-009 151   XYZ
    dof rx ry rz
    limits (-180.0 180.0)
           (-180.0 180.0)
           (-180.0 180.0)
  end
  begin
     id 25 
     name rwrist
     direction -0.48481 -0.87462 5.43623e-026   
     length 0.306944   
     axis 180 5.14477e-009 151   XYZ
    dof rx ry rz
    limits (-180.0 180.0)
           (-180.0 180.0)
           (-180.0 180.0)
  end
  begin
     id 26
     name rhand
     direction -0.479273 -0.864638 -0.150661   
     length 0.306429   
     axis 180 5.14477e-009 151   XYZ
    dof rx ry rz
    limits (-180.0 180.0)
           (-180.0 180.0)
           (-180.0 180.0)
  end
:hierarchy
  begin
    root lhipjoint rhipjoint lowerback 
    lhipjoint lfemur
    lfemur ltibia
    ltibia lfoot
    lfoot ltoes
    rhipjoint rfemur
    rfemur rtibia
    rtibia rfoot
    rfoot rtoes
    lowerback upperback
    upperback thorax
    thorax lowerneck lshoulderjoint rshoulderjoint
    lowerneck upperneck
    upperneck head
    lshoulderjoint lhumerus
    lhumerus lradius
    lradius lwrist
    lwrist lhand
    rshoulderjoint rhumerus
    rhumerus rradius
    rradius rwrist
    rwrist rhand
  end

:FULLY-SPECIFIED
:DEGREES
2422
root 0.112667 3.61107 -0.321908 -260.531 -80.5309 95.0814
lowerback -14.8787 -2.70345 -4.77902
upperback -3.52307 -3.00759 -0.185135
thorax 4.81816 -1.60489 1.92863
lowerneck 14.058 1.42915 -1.22294
upperneck -3.86822 1.688 0.510399
head -3.80499 0.814315 0.26194
rshoulderjoint 1.28438 -3.25867 -32.5253
rhumerus -4.48085 -6.05418 -56.6159
rradius 34.0024 5.08889e-014 3.10104e-014
rwrist -2.66122e-013 7.26453 1.60315e-014
rhand 8.88326 -6.41993 29.1195
lshoulderjoint 2.70621 9.49414 26.9903
lhumerus 2.29345 -2.29972 52.3699
lradius 24.4645 2.02512e-014 3.10104e-014
lwrist -2.59861e-013 -11.7185 -1.54292e-014
lhand 21.2178 11.079 -21.4426
rfemur -20.4408 7.23602 8.77246
rtibia 28.9475 1.35174e-014 -7.15625e-015
rfoot -11.8379 13.0387 -20.662
rtoes -5.24792e-014 7.55382e-014 -5.24792e-014
lfemur -10.9028 -11.5458 -18.0874
ltibia -2.98177e-015 -1.43125e-014 -2.3059e-014
lfoot 1.92187 -4.17564 12.1849
ltoes -9.93923e-016 7.57789e-014 7.83212e-014
2423
root 0.099683 3.61188 -0.321879 -261.167 -80.5218 94.3433
lowerback -14.868 -2.75884 -4.85011
upperback -3.49068 -3.0642 -0.272993
thorax 4.84933 -1.63393 1.86436
lowerneck 13.9291 1.42794 -1.15344
upperneck -3.82963 1.69837 0.479369
head -3.76462 0.820164 0.23914
rshoulderjoint 1.30693 -3.31965 -32.5036
rhumerus -4.5226 -5.46649 -56.6635
rradius 34.3479 -1.33583e-013 -1.59028e-014
rwrist 2.82111e-013 7.19647 9.13655e-014
rhand 9.12974 -6.34554 28.3784
lshoulderjoint 2.70064 9.43712 27.0496
lhumerus 2.27852 -3.15315 52.2889
lradius 25.2129 2.19657e-014 -1.59028e-014
lwrist 3.60066e-013 -11.3358 2.47342e-014
lhand 20.7612 10.6834 -21.3776
rfemur -19.5245 6.66929 8.59248
rtibia 25.2625 -4.77083e-015 1.59028e-015
rfoot -11.3338 12.8734 -19.0238
rtoes -1.82882e-014 -6.55989e-015 1.59028e-015
lfemur -10.7034 -11.6765 -18.2187
ltibia 5.76476e-015 6.36111e-015 7.95139e-016
lfoot 1.77434 -4.5386 12.117
ltoes -3.33958e-014 1.05356e-014 4.75095e-014
2424
root 0.0867999 3.61214 -0.321792 -262.366 -80.4908 93.2109
lowerback -14.8864 -2.82144 -4.72672
upperback -3.48419 -3.16169 -0.323024
thorax 4.86414 -1.68069 1.72221
lowerneck 13.8863 1.43261 -1.08687
upperneck -3.84697 1.71545 0.453385
head -3.76138 0.829065 0.217404
rshoulderjoint 1.294 -3.2802 -32.5427
rhumerus -4.61786 -4.95978 -56.7659
rradius 34.7035 2.38542e-013 1.59028e-014
rwrist -7.91669e-013 7.10095 -1.49039e-013
rhand 9.34722 -6.26525 27.6984
lshoulderjoint 2.69843 9.37721 27.1334
lhumerus 2.20366 -3.89408 52.2388
lradius 25.986 -9.54166e-015 4.45278e-014
lwrist -8.97349e-013 -10.9491 -8.1798e-014
lhand 20.3743 10.3074 -21.201
rfemur -18.5688 5.75713 8.65322
rtibia 21.5301 -3.18055e-015 -4.77083e-015
rfoot -10.6249 12.8019 -17.1361
rtoes -3.02153e-014 1.52766e-013 2.8625e-014
lfemur -10.537 -11.8723 -18.1711
ltibia 2.38542e-014 1.74931e-014 -1.59028e-014
lfoot 1.5253 -4.29376 12.1748
ltoes -7.36497e-014 6.84114e-014 4.76089e-014
2425
root 0.0740022 3.6118 -0.321759 -263.713 -80.4862 91.8119
lowerback -14.8541 -2.89219 -4.72454
upperback -3.49738 -3.25448 -0.400522
thorax 4.83417 -1.7258 1.62296
lowerneck 13.8318 1.43662 -1.06917
upperneck -3.80537 1.72591 0.474453
head -3.73591 0.832861 0.220956
rshoulderjoint 1.28051 -3.23734 -32.5947
rhumerus -4.76285 -4.41799 -56.8803
rradius 35.0654 1.11319e-013 -1.35174e-014
rwrist 3.81312e-013 6.98019 -1.98667e-013
rhand 9.50552 -6.21029 27.1865
lshoulderjoint 2.693 9.29941 27.2291
lhumerus 2.07697 -4.59349 52.2079
lradius 26.7557 1.59028e-014 6.67916e-014
lwrist 3.68888e-013 -10.6087 1.70692e-013
lhand 20.0507 10.0242 -20.9554
rfemur -17.5614 4.3121 8.69979
rtibia 17.8618 -3.97569e-015 0
rfoot -9.74554 12.1463 -14.745
rtoes 7.03698e-014 -3.50358e-014 7.95139e-015
lfemur -10.3458 -12.1127 -18.2451
ltibia -2.09718e-014 6.36111e-015 7.15625e-015
lfoot 1.33378 -4.25965 12.1998
ltoes 5.84427e-014 -1.98614e-014 4.1049e-014
2426
root 0.0611243 3.61089 -0.322138 -265.155 -80.4522 90.3494
lowerback -14.8643 -2.96271 -4.71129
upperback -3.53592 -3.34979 -0.446811
thorax 4.80154 -1.77225 1.54877
lowerneck 13.8988 1.43663 -1.12308
upperneck -3.83322 1.71907 0.519129
head -3.7602 0.828054 0.245587
rshoulderjoint 1.25496 -3.15304 -32.7165
rhumerus -4.94264 -3.8935 -57.0028
rradius 35.3975 -1.33583e-013 4.92986e-014
rwrist 2.27481e-013 6.92929 2.01849e-013
rhand 9.56955 -6.26485 26.8163
lshoulderjoint 2.68992 9.23676 27.3147
lhumerus 1.91519 -5.15822 52.2391
lradius 27.5132 5.56597e-015 -7.15625e-014
lwrist 2.39158e-013 -10.2236 -8.56445e-014
lhand 19.8403 9.61912 -20.6738
rfemur -16.7125 4.06773 8.66311
rtibia 14.5335 3.18055e-015 -2.38542e-015
rfoot -7.93523 12.3469 -13.41
rtoes -6.89783e-014 4.91495e-014 -1.90833e-014
lfemur -10.1783 -12.3633 -18.2744
ltibia 1.0635e-014 -3.18055e-015 -7.95139e-016
lfoot 1.16743 -4.07844 12.222
ltoes -3.95581e-014 9.17826e-015 2.89232e-014
